:SAMPLES-PER-SECOND 30
:FRAME-RANGE 1-744
:FULLY-SPECIFIED
:DEGREES
396
root  -8.87711 36.7791 98.7698 5.35651 8.39122 -5.71887
RightUpLeg  -39.093 32.9824 -17.6079
RightLeg  40.8713 -8.63268 -8.19662
RightFoot  -1.0999 -0.837704 9.24477
RightToes  5.82063e-011 0 -3.6325e-017
Spine  40.3469 1.11417 6.31926
Spine1  -0.235263 5.57903 -8.08332
HEad  -2.74069 -2.04674 -3.56967
LeftShoulder1  4.48491 -10.5725 -25.7243
LeftArm  -27.1798 -59.3247 -22.6176
LeftForeArm  -9.37318 0.585202 -15.4608
LeftHand  0.157431 -9.10494 -0.863019
RightShoulder  22.0496 33.056 52.3587
RightArm  -34.8923 30.8799 -4.7371
RightForeArm  -1.83986 7.68215 8.7661
RightHand  3.99192 27.4977 13.2938
LeftUpLeg  -28.2408 11.8274 17.1262
LeftLeg  33.6031 -13.6568 -9.24653
LeftFoot  -9.54861 0.0976781 -2.58163
LeftToes  1.25507e-010 -3.78807e-010 5.71421e-011
397
root  -8.15769 36.5394 98.4381 5.98859 7.5527 -6.59868
RightUpLeg  -40.3911 27.9664 -12.4459
RightLeg  45.3903 -7.02852 -7.87455
RightFoot  -6.08399 -0.450054 8.88157
RightToes  5.82063e-011 0 -3.6325e-017
Spine  42.2921 1.48692 6.12538
Spine1  -0.198621 5.85095 -7.46414
HEad  -4.75961 -2.66616 -3.60083
LeftShoulder1  4.45864 -10.838 -24.9159
LeftArm  -29.2338 -61.4648 -22.7843
LeftForeArm  -9.03456 1.30939 -14.9516
LeftHand  0.0827666 -8.63085 -0.2969
RightShoulder  21.8675 33.6792 51.0373
RightArm  -37.048 31.3914 -5.1349
RightForeArm  -2.01461 6.66887 8.33867
RightHand  3.76642 27.2819 12.6084
LeftUpLeg  -30.9728 13.0943 16.5899
LeftLeg  37.2381 -13.1707 -10.1823
LeftFoot  -10.681 0.0694512 -0.92685
LeftToes  1.25507e-010 -3.78807e-010 5.71421e-011
398
root  -7.53104 36.2271 98.1478 6.70456 6.36871 -7.68474
RightUpLeg  -40.8648 21.7037 -5.9273
RightLeg  47.9515 -4.61895 -5.79795
RightFoot  -10.1008 -0.180007 10.2447
RightToes  5.82063e-011 0 -3.6325e-017
Spine  43.897 2.00629 5.90468
Spine1  0.0584318 6.39785 -7.16206
HEad  -6.81953 -3.17788 -3.95649
LeftShoulder1  4.46935 -11.0512 -24.5148
LeftArm  -30.9601 -63.4617 -22.1418
LeftForeArm  -9.49765 1.79616 -14.658
LeftHand  0.154219 -7.77373 -0.986288
RightShoulder  21.6265 34.3322 49.5636
RightArm  -38.6241 31.7912 -5.46947
RightForeArm  -2.43454 6.04212 7.96121
RightHand  3.40285 27.0125 11.4515
LeftUpLeg  -33.7288 13.9598 16.534
LeftLeg  40.9108 -11.9411 -10.511
LeftFoot  -11.9869 0.0744011 0.432396
LeftToes  1.25507e-010 -3.78807e-010 5.71421e-011
399
root  -6.98049 35.8452 97.8806 8.02655 5.38602 -8.43176
RightUpLeg  -41.7596 14.8608 0.130544
RightLeg  49.3389 -2.227 -3.12461
RightFoot  -13.2539 0.113088 12.1431
RightToes  5.82063e-011 0 -3.6325e-017
Spine  44.7036 2.58975 5.25847
Spine1  0.497227 6.81365 -6.73571
HEad  -9.08367 -3.61307 -4.39668
LeftShoulder1  4.46899 -11.2933 -23.9833
LeftArm  -32.7228 -65.1542 -21.5758
LeftForeArm  -8.31049 2.33137 -14.0948
LeftHand  0.00111927 -8.29138 0.371455
RightShoulder  21.2519 35.0809 47.6825
RightArm  -39.9823 32.2687 -5.63577
RightForeArm  -2.5945 5.25814 7.5829
RightHand  3.14407 26.9787 10.5582
LeftUpLeg  -37.0553 14.3233 16.1606
LeftLeg  44.2891 -10.2716 -10.1663
LeftFoot  -13.381 0.105514 1.41402
LeftToes  1.25507e-010 -3.78807e-010 5.71421e-011
400
root  -6.47277 35.3923 97.6341 9.22899 4.59253 -8.86028
RightUpLeg  -43.0814 9.57445 4.79204
RightLeg  50.5248 -0.229374 -0.657954
RightFoot  -15.1536 0.365927 14.0346
RightToes  5.82063e-011 0 -3.6325e-017
Spine  45.7512 2.97415 4.78115
Spine1  0.888268 7.06156 -6.39529
HEad  -11.1473 -4.35127 -4.7997
LeftShoulder1  4.47651 -11.5616 -23.4681
LeftArm  -34.7082 -66.9389 -20.5409
LeftForeArm  -8.95187 2.93822 -13.6601
LeftHand  0.0622383 -7.72107 -0.179857
RightShoulder  20.7435 35.8122 45.5544
RightArm  -41.3367 32.6528 -5.77617
RightForeArm  -2.88252 4.69473 7.21538
RightHand  2.85203 26.891 9.56234
LeftUpLeg  -40.3797 15.007 15.4271
LeftLeg  47.8764 -9.32425 -10.4574
LeftFoot  -14.8168 0.160983 2.37313
LeftToes  1.25507e-010 -3.78807e-010 5.71421e-011
401
root  -6.03458 34.8411 97.3871 10.5994 3.78917 -9.58981
RightUpLeg  -45.2584 7.15568 7.96734
RightLeg  51.7925 0.389268 0.158528
RightFoot  -16.0537 0.489155 14.4773
RightToes  5.82063e-011 0 -3.6325e-017
Spine  46.8939 3.41902 4.50107
Spine1  0.745764 7.34261 -5.7733
HEad  -13.4233 -4.9206 -5.55062
LeftShoulder1  4.46278 -11.7378 -23.0092
LeftArm  -36.5455 -68.1803 -19.781
LeftForeArm  -8.77125 2.99203 -13.1362
LeftHand  0.0117882 -7.61752 0.263205
RightShoulder  20.0973 36.4027 43.3194
RightArm  -41.969 32.9365 -5.93389
RightForeArm  -3.49358 4.48954 7.06389
RightHand  2.61791 26.9793 8.71172
LeftUpLeg  -44.2182 16.0754 15.0199
LeftLeg  51.9563 -8.6193 -11.1782
LeftFoot  -16.194 0.230035 3.13258
LeftToes  1.25507e-010 -3.78807e-010 5.71421e-011
402
root  -5.68018 34.1614 97.1531 11.7384 3.18211 -10.2215
RightUpLeg  -47.6748 7.5441 9.15753
RightLeg  53.2424 0.337123 0.0952724
RightFoot  -15.9199 0.541608 16.1667
RightToes  5.82063e-011 0 -3.6325e-017
Spine  48.2147 3.77442 4.28113
Spine1  0.624734 7.56049 -5.1736
HEad  -15.853 -5.44791 -5.95314
LeftShoulder1  4.41556 -11.9828 -22.1941
LeftArm  -38.5968 -69.3119 -18.4957
LeftForeArm  -7.9805 2.82217 -12.6314
LeftHand  -0.0963679 -8.34161 1.19486
RightShoulder  19.4253 36.8986 41.1628
RightArm  -43.0835 33.3076 -6.30182
RightForeArm  -3.8647 4.45997 6.84554
RightHand  2.41134 26.9208 8.0016
LeftUpLeg  -48.0882 16.7034 14.7741
LeftLeg  56.3853 -7.70442 -11.7778
LeftFoot  -17.7527 0.316175 3.73957
LeftToes  1.25507e-010 -3.78807e-010 5.71421e-011
403
root  -5.32409 33.3767 96.9185 12.6988 2.65219 -10.7778
RightUpLeg  -50.6477 8.8264 9.2694
RightLeg  56.0156 -0.248736 -0.827963
RightFoot  -16.3945 0.375806 11.0137
RightToes  5.82063e-011 0 -3.6325e-017
Spine  49.446 3.93569 4.56546
Spine1  0.716903 7.5731 -4.41049
HEad  -18.176 -6.1079 -6.24389
LeftShoulder1  4.41312 -12.256 -21.6506
LeftArm  -40.6746 -70.2991 -16.5136
LeftForeArm  -7.95169 2.2843 -12.4308
LeftHand  -0.174569 -8.52694 1.83809
RightShoulder  18.6663 37.2473 38.9874
RightArm  -43.8781 33.6177 -6.71072
RightForeArm  -4.15454 4.68407 6.75211
RightHand  2.18728 26.7568 7.25289
LeftUpLeg  -51.8885 16.5299 14.6901
LeftLeg  60.9333 -6.24729 -11.4408
LeftFoot  -19.5771 0.42422 4.2561
LeftToes  1.25507e-010 -3.78807e-010 5.71421e-011
404
root  -5.03444 32.3391 96.6907 13.707 2.28993 -10.8261
RightUpLeg  -54.5066 9.69926 8.86428
RightLeg  60.5386 -0.75781 -1.96735
RightFoot  -18.6837 0.299634 6.63952
RightToes  5.82063e-011 0 -3.6325e-017
Spine  50.3075 4.06517 4.39402
Spine1  0.577451 7.39885 -3.71408
HEad  -20.2327 -6.95941 -6.38963
LeftShoulder1  4.40218 -12.434 -21.2434
LeftArm  -42.6883 -70.889 -15.3097
LeftForeArm  -7.97266 1.65739 -12.0085
LeftHand  -0.134622 -8.45096 1.51049
RightShoulder  18.1873 37.4866 37.5963
RightArm  -44.7569 33.8662 -7.09116
RightForeArm  -4.37566 4.9714 6.6313
RightHand  1.92001 26.7738 6.30123
LeftUpLeg  -56.3359 15.9558 14.2959
LeftLeg  66.3614 -4.66062 -10.8605
LeftFoot  -21.7 0.522668 4.32473
LeftToes  1.25507e-010 -3.78807e-010 5.71421e-011
405
root  -4.79936 31.098 96.4867 14.2139 1.73064 -10.5379
RightUpLeg  -58.6941 10.1373 8.17676
RightLeg  66.4993 -0.936563 -3.04463
RightFoot  -21.619 0.384641 5.90375
RightToes  5.82063e-011 0 -3.6325e-017
Spine  51.1419 4.30868 3.9043
Spine1  0.672464 7.38279 -3.19253
HEad  -21.9586 -7.7702 -6.26708
LeftShoulder1  4.42581 -12.7004 -20.9125
LeftArm  -44.2242 -71.3895 -13.2823
LeftForeArm  -7.95111 1.03176 -12.0838
LeftHand  -0.158423 -8.84213 1.67963
RightShoulder  17.7184 37.7206 36.2384
RightArm  -45.2434 33.8638 -7.54023
RightForeArm  -5.02607 5.25783 6.60612
RightHand  1.89606 26.5541 6.26464
LeftUpLeg  -60.5046 15.5399 13.7535
LeftLeg  72.4103 -3.16228 -10.2023
LeftFoot  -24.1896 0.668473 4.64154
LeftToes  1.25507e-010 -3.78807e-010 5.71421e-011
406
root  -4.60306 29.6652 96.3187 14.2818 1.20061 -9.88768
RightUpLeg  -63.1118 10.3117 6.97048
RightLeg  73.4958 -0.562424 -3.20589
RightFoot  -24.5902 0.52758 5.97604
RightToes  5.82063e-011 0 -3.6325e-017
Spine  51.6499 4.47675 3.14725
Spine1  1.0488 7.2764 -2.77965
HEad  -23.4283 -8.29231 -6.35789
LeftShoulder1  4.43007 -12.8729 -20.6317
LeftArm  -45.8244 -71.7426 -12.0447
LeftForeArm  -8.21095 0.583656 -11.8484
LeftHand  -0.20061 -8.44592 2.06327
RightShoulder  17.3798 37.9221 35.2261
RightArm  -45.5888 33.8764 -7.71552
RightForeArm  -5.34298 5.59692 6.59152
RightHand  1.7826 26.623 5.84498
LeftUpLeg  -64.512 14.8833 13.1117
LeftLeg  79.0085 -1.78009 -9.41137
LeftFoot  -26.8951 0.800961 4.67564
LeftToes  1.25507e-010 -3.78807e-010 5.71421e-011
407
root  -4.41409 28.1219 96.1915 13.73 0.808762 -9.63351
RightUpLeg  -67.0804 10.1314 6.29814
RightLeg  80.7295 -0.0549909 -2.60518
RightFoot  -27.2659 0.697267 6.30519
RightToes  5.82063e-011 0 -3.6325e-017
Spine  52.3347 4.39647 3.16944
Spine1  1.28252 7.2383 -2.53974
HEad  -24.6656 -8.74819 -6.07888
LeftShoulder1  4.44199 -13.0316 -20.4299
LeftArm  -46.2387 -71.8444 -12.1593
LeftForeArm  -7.33335 0.0488298 -11.6507
LeftHand  -0.289664 -9.01397 2.72194
RightShoulder  17.2107 37.9251 34.8231
RightArm  -45.6632 33.7406 -8.0125
RightForeArm  -5.76287 5.951 6.6463
RightHand  1.72743 26.599 5.65314
LeftUpLeg  -68.1498 14.2073 13.0822
LeftLeg  85.9328 -0.578941 -8.37481
LeftFoot  -29.4893 0.917082 4.62564
LeftToes  1.25507e-010 -3.78807e-010 5.71421e-011
